<?xml version="1.0" encoding="utf-8"?>
<!-- Generator: Adobe Illustrator 27.3.1, SVG Export Plug-In . SVG Version: 6.00 Build 0)  -->
<svg version="1.1" id="Layer_1" xmlns="http://www.w3.org/2000/svg" xmlns:xlink="http://www.w3.org/1999/xlink" x="0px" y="0px"
	 viewBox="0 0 600 600" style="enable-background:new 0 0 600 600;" xml:space="preserve">
<style type="text/css">
	.st0{fill:#F26522;}
	.st1{fill:#BC4F18;}
	.st2{fill:#010101;}
	.st3{fill:#BE4F18;}
	.st4{fill:#F16522;}
</style>
<g>
	<g>
		
			<circle id="CAD_Centered_Ellipse_00000018926595329949522920000012216898093628989836_" class="st0" cx="-533.6" cy="1168.3" r="289.4"/>
	</g>
	<g>
		<path class="st1" d="M-332.2,1253.6v-91.3l-14.6-40.7c-9.4-29-37.7-28.6-37.8-28.6h-83.4v157.4h-13.6c6.2-3.3,10.5-9.8,10.5-17.3
			v-154.7c0-10.8-8.8-19.5-19.5-19.5h-89.2V1035h7.8c1.8,0,3.2-1.4,3.2-3.2c0-1.8-1.4-3.2-3.2-3.2h-7.8h-41h-7.8
			c-1.8,0-3.2,1.4-3.2,3.2c0,1.8,1.4,3.2,3.2,3.2h7.8v23.8h-94.7c-10.8,0-19.5,8.8-19.5,19.5V1233c0,7.5,4.3,14,10.5,17.3h-1.2
			c-1.8,0-3.2,1.4-3.2,3.2v34.2c0,1.8,1.4,3.2,3.2,3.2h34.5c4.5,10,14.6,17,26.3,17c11.8,0,21.9-7.1,26.4-17.2
			c4.5,10.1,14.6,17.2,26.4,17.2c11.7,0,21.8-7,26.3-17h147c4.5,10,14.6,17,26.3,17c11.7,0,21.8-7,26.3-17c0.1,0,0.1,0,0.2,0h31
			c11.8,0,17.4-5.5,20.1-10.2c2.9-5,2.9-10,2.9-10.2L-332.2,1253.6C-332.2,1253.6-332.2,1253.6-332.2,1253.6z M-426.5,1250.3v-47
			h13.8c1.8,0,3.2-1.4,3.2-3.2s-1.4-3.2-3.2-3.2h-13.8v-28.7h87.8v45.5h-31c-1.8,0-3.2,1.4-3.2,3.2v33.4H-426.5z M-366.4,1220.2
			h27.8v30.2h-27.8V1220.2z M-384.6,1099.4c1,0,23.7-0.2,31.7,24.2l13.7,38.1h-87.2v-62.4L-384.6,1099.4z M-461.6,1099.4l28.7,0
			v150.9h-28.7V1099.4z M-630.4,1256.8c-3.5,2.9-6.4,6.5-8.2,10.7c-1.9-4.2-4.7-7.9-8.2-10.7H-630.4z M-614.4,1035h28.1v23.8h-28.1
			V1035z M-728.6,1233v-154.7c0-7.2,5.9-13.1,13.1-13.1h94.7h41h89.2c7.2,0,13.1,5.9,13.1,13.1V1233c0,7.2-5.9,13.1-13.1,13.1
			h-224.9C-722.8,1246.1-728.6,1240.3-728.6,1233z M-722.6,1284.6v-27.8h39.4c-6.5,5.3-10.7,13.4-10.7,22.4c0,1.8,0.2,3.6,0.5,5.4
			H-722.6z M-665.1,1301.6c-12.3,0-22.4-10-22.4-22.4c0-12.3,10-22.4,22.4-22.4c12.3,0,22.4,10,22.4,22.4
			C-642.7,1291.5-652.7,1301.6-665.1,1301.6z M-612.3,1301.6c-12.3,0-22.4-10-22.4-22.4c0-12.3,10-22.4,22.4-22.4
			c12.3,0,22.4,10,22.4,22.4C-589.9,1291.5-599.9,1301.6-612.3,1301.6z M-584,1284.6c0.3-1.7,0.5-3.5,0.5-5.4
			c0-9-4.2-17.1-10.7-22.4h163.3c-6.5,5.3-10.7,13.4-10.7,22.4c0,1.8,0.2,3.6,0.5,5.4H-584z M-412.7,1301.6
			c-12.3,0-22.4-10-22.4-22.4c0-12.3,10-22.4,22.4-22.4c12.3,0,22.4,10,22.4,22.4C-390.3,1291.5-400.3,1301.6-412.7,1301.6z
			 M-338.7,1270.7c0,1.4-0.6,13.9-16.5,13.9h-29.2c0.3-1.7,0.5-3.5,0.5-5.4c0-9-4.2-17.1-10.7-22.4h55.9V1270.7z"/>
		<path class="st1" d="M-665.1,1221.7h91.6c5.6,0,10.1-4.6,10.1-10.1v-106.6c0-5.6-4.6-10.1-10.1-10.1h-91.6
			c-5.6,0-10.1,4.6-10.1,10.1v106.6C-675.2,1217.1-670.7,1221.7-665.1,1221.7z M-668.8,1104.9c0-2,1.7-3.7,3.7-3.7h91.6
			c2,0,3.7,1.7,3.7,3.7v106.6c0,2-1.7,3.7-3.7,3.7h-91.6c-2,0-3.7-1.7-3.7-3.7V1104.9z"/>
		<path class="st1" d="M-537.3,1124.7h28.2c1.8,0,3.2-1.4,3.2-3.2s-1.4-3.2-3.2-3.2h-28.2c-1.8,0-3.2,1.4-3.2,3.2
			S-539.1,1124.7-537.3,1124.7z"/>
		<path class="st1" d="M-537.3,1160.2h28.2c1.8,0,3.2-1.4,3.2-3.2c0-1.8-1.4-3.2-3.2-3.2h-28.2c-1.8,0-3.2,1.4-3.2,3.2
			C-540.5,1158.7-539.1,1160.2-537.3,1160.2z"/>
		<path class="st1" d="M-537.3,1195.7h12.1c1.8,0,3.2-1.4,3.2-3.2c0-1.8-1.4-3.2-3.2-3.2h-12.1c-1.8,0-3.2,1.4-3.2,3.2
			C-540.5,1194.2-539.1,1195.7-537.3,1195.7z"/>
		<path class="st1" d="M-621.1,1186.2c11.7,0,21.3-9.5,21.3-21.3c0-3.4-0.9-6.8-2.6-10c0,0,0,0,0,0l-0.8-1.5
			c-0.1-0.1-0.1-0.2-0.2-0.3l-14.4-22.3c-0.6-0.9-1.6-1.5-2.7-1.5h-1.1c-1.1,0-2.1,0.6-2.7,1.5l-14.3,22.3c-0.1,0.1-0.1,0.2-0.2,0.3
			l-0.8,1.5c-1.7,3.2-2.6,6.6-2.6,10C-642.4,1176.7-632.9,1186.2-621.1,1186.2z M-634.1,1158l0.8-1.4l12.2-18.9l12.2,18.9l0.8,1.4
			c1.2,2.3,1.8,4.6,1.8,7c0,8.2-6.6,14.8-14.8,14.8c-8.2,0-14.8-6.6-14.8-14.8C-635.9,1162.6-635.3,1160.3-634.1,1158z"/>
	</g>
</g>
<path class="st0" d="M-349.8,588.3c-77.4,0-150.2-30.2-204.9-84.9c-54.8-54.8-84.9-127.5-84.9-205s30.2-150.2,84.9-205
	C-500,38.8-427.2,8.6-349.8,8.6c77.4,0,150.2,30.2,204.9,84.9c54.8,54.8,84.9,127.5,84.9,205s-30.2,150.2-84.9,205
	C-199.6,558.2-272.4,588.3-349.8,588.3z"/>
<path class="st2" d="M302.2,17.5c155.9,0,282.4,126.4,282.4,282.4S458.1,582.2,302.2,582.2S19.9,455.8,19.9,299.9
	S146.3,17.5,302.2,17.5 M302.2,2.5c-40.1,0-79.1,7.9-115.7,23.4c-35.4,15-67.2,36.4-94.5,63.7s-48.7,59.1-63.7,94.5
	C12.7,220.8,4.9,259.7,4.9,299.9s7.9,79.1,23.4,115.8c15,35.4,36.4,67.2,63.7,94.5s59.1,48.7,94.5,63.7
	c36.7,15.5,75.6,23.4,115.7,23.4s79.1-7.9,115.8-23.4c35.4-15,67.2-36.4,94.5-63.7c27.3-27.3,48.7-59.1,63.7-94.5
	c15.5-36.7,23.4-75.6,23.4-115.8s-7.9-79.1-23.4-115.7c-15-35.4-36.4-67.2-63.7-94.5c-27.3-27.3-59.1-48.7-94.5-63.7
	C381.3,10.4,342.3,2.5,302.2,2.5L302.2,2.5z"/>
<g>
	<path class="st3" d="M-194.2,451.1V387h-20.7v-32.3c7.4-1.9,12.9-8.6,12.9-16.6c0-9.2-7.3-16.7-16.4-17.1l-3.1-25.5l-81.1-44.6
		v-3.5c0-4.9-4-8.8-8.8-8.8h-13.5l-52.7-29l2.8-2.9l19.4-42.9l-27.6-28.6l-39.6,16.4l-38.3,38.6c-35.4,38.4-34.1,85.8-34,87.7v26.7
		v7.8v25.7c0,2.4,1.9,4.3,4.3,4.3s4.3-1.9,4.3-4.3v-31.1l34.4-21.6l47.8-48.8l51.5,29.4v13.7c0,1.2,0.2,2.3,0.6,3.3l-32.9,140.7
		h-34.8v27.4h-55.3v-11.7c0-7.1-4.8-13.1-11.3-15v-30.2c0-2.4-1.9-4.3-4.3-4.3s-4.3,1.9-4.3,4.3v30.2c-6.5,1.9-11.3,7.8-11.3,15
		v11.7h-0.6v8.6h317.6v-8.6L-194.2,451.1z M-244.3,387v36.8h-26.1l-29.9-127.9l64.7,37c-0.5,1.7-0.9,3.4-0.9,5.3
		c0,8,5.5,14.7,12.9,16.6v32.3L-244.3,387z M-320.5,423.7h-14.1v-12.5c0-3.9,3.2-7,7-7c3.9,0,7,3.2,7,7L-320.5,423.7z M-327.5,395.6
		c-8.6,0-15.6,7-15.6,15.6v12.5h-31l46.8-91.2l47.4,91.2h-31.9v-12.5C-311.9,402.6-318.9,395.6-327.5,395.6z M-327.5,313.8
		l-13.1-25.3h26.1L-327.5,313.8z M-308.9,296.6l22.4,96l-36.1-69.4L-308.9,296.6z M-332.3,323.2l-36.9,71.8l23-98.5L-332.3,323.2z
		 M-210.6,338.1c0,4.7-3.9,8.6-8.6,8.6c-4.7,0-8.6-3.9-8.6-8.6c0-4.7,3.9-8.6,8.6-8.6C-214.5,329.5-210.6,333.3-210.6,338.1z
		 M-229.5,300.9l2.6,21.8c-1.5,0.7-2.8,1.7-4,2.8l-72-41.2l-0.3-1.4c0.4-1,0.6-2.1,0.6-3.3v-19L-229.5,300.9z M-311.2,247.4v32.3
		c0,0.1-0.1,0.2-0.2,0.2l-32.5-0.2l0.2-32.5l16.8,0.1l0.5,0.3l0.1-0.3L-311.2,247.4z M-365.6,165.6l-8.2,18.2l-30.1-30.5l18.9-7.9
		L-365.6,165.6z M-417.6,158.9l5-2.1l34.9,35.4l-4.3,9.6l-8,8.1l-39-39.6L-417.6,158.9z M-456.8,278.3l-29.3,18.5v-19
		c0-0.5-1.2-46,31.6-81.6l19.5-19.6l18,18.3l-19.2,19.4c-1.7,1.7-1.7,4.4,0,6.1c0.8,0.8,1.9,1.2,3,1.2c1.1,0,2.2-0.4,3.1-1.3
		l19.1-19.3l15,15.2L-456.8,278.3z M-397.7,230.1l13.9-14.2l41.1,22.6h-0.9c-4.9,0-8.8,3.9-8.8,8.8v8.6L-397.7,230.1z M-497.4,439.4
		c0-3.9,3.1-7,7-7s7,3.2,7,7v11.7h-14.1L-497.4,439.4z M-410.8,451.1v-18.8h166.6v18.8H-410.8z M-235.7,451.1v-55.5h32.8v55.5
		H-235.7z"/>
</g>
<g>
	<g>
		<g id="CAD_Centered_Ellipse_00000121254997013298413050000012810086426529865379_">
			<circle class="st4" cx="1020.2" cy="1161" r="282"/>
		</g>
	</g>
	<g>
		<path class="st1" d="M957.2,1108.2h113.9c2.2,0,4-1.8,4-4c0-2.2-1.8-4-4-4H957.2c-2.2,0-4,1.8-4,4
			C953.2,1106.4,955,1108.2,957.2,1108.2z"/>
		<path class="st1" d="M957.2,1140.2h81.3c2.2,0,4-1.8,4-4c0-2.2-1.8-4-4-4h-81.3c-2.2,0-4,1.8-4,4
			C953.2,1138.5,955,1140.2,957.2,1140.2z"/>
		<path class="st1" d="M957.2,1172.3h81.3c2.2,0,4-1.8,4-4c0-2.2-1.8-4-4-4h-81.3c-2.2,0-4,1.8-4,4
			C953.2,1170.5,955,1172.3,957.2,1172.3z"/>
		<path class="st1" d="M1042.4,1200.4c0-2.2-1.8-4-4-4h-81.3c-2.2,0-4,1.8-4,4c0,2.2,1.8,4,4,4h81.3
			C1040.6,1204.3,1042.4,1202.5,1042.4,1200.4z"/>
		<path class="st1" d="M1069.2,1247.2h-46.4c-2.2,0-4,1.8-4,4c0,2.2,1.8,4,4,4h46.4c2.2,0,4-1.8,4-4
			C1073.2,1249,1071.4,1247.2,1069.2,1247.2z"/>
		<path class="st1" d="M1191.2,1117.4c0-4.6-1.8-8.9-5-12.1c-6.7-6.7-17.5-6.7-24.2-0.1l-38,36.7v-68.9c0-1.2-0.5-2.3-1.5-3.1
			l-50.6-40.3c-0.2-0.1-0.3-0.3-0.5-0.4l-0.8-0.6c-0.7-0.6-1.6-0.9-2.5-0.9H936.6c-8.2,0-14.9,6.7-14.9,14.9v236.6
			c0,8.2,6.7,14.9,14.9,14.9h172.5c8.2,0,14.9-6.7,14.9-14.9v-89.8c0,0,0,0,0,0l52.8-51c0.4-0.2,0.7-0.4,1-0.7
			c0.3-0.3,0.5-0.6,0.6-0.9l7.7-7.4C1189.4,1126.3,1191.2,1122,1191.2,1117.4z M1111.2,1191l-13-13.1l58.1-56.1l13,13.1L1111.2,1191
			z M1104.5,1195.5l-23.8,12.7l12.8-23.8L1104.5,1195.5z M1073.2,1040.9l34.5,27.4H1077c-2.1,0-3.9-1.7-3.9-3.9V1040.9z
			 M1116.1,1279.3c0,3.9-3.1,7-7,7H936.6c-3.9,0-7-3.1-7-7v-236.6c0-3.9,3.1-7,7-7h128.7v28.6c0,6.5,5.3,11.8,11.8,11.8h39.1v73.4
			l-26.3,25.4c0,0-0.1,0.1-0.1,0.1c-0.1,0.1-0.1,0.2-0.2,0.2c-0.1,0.1-0.2,0.3-0.3,0.5c0,0.1-0.1,0.1-0.1,0.1l-21.4,40
			c-0.8,1.5-0.5,3.4,0.7,4.7c0.8,0.8,1.8,1.2,2.8,1.2c0.6,0,1.3-0.2,1.9-0.5l40-21.3c0,0,0.1-0.1,0.1-0.1c0.2-0.1,0.3-0.2,0.5-0.3
			c0.1-0.1,0.2-0.1,0.2-0.2c0,0,0.1,0,0.1-0.1l2.2-2.2V1279.3z M1180.6,1123.9l-5.7,5.5l-13-13.1l5.6-5.4c3.6-3.6,9.5-3.6,13.1,0
			c1.7,1.7,2.7,4.1,2.7,6.5C1183.3,1119.9,1182.3,1122.2,1180.6,1123.9z"/>
	</g>
</g>
<g>
	<g>
		<g id="CAD_Centered_Ellipse_00000091013020585941669400000011897828275513461684_">
			<circle class="st4" cx="302.2" cy="299.9" r="288.1"/>
		</g>
	</g>
	<g>
		<path class="st1" d="M460.8,340.3c-0.2-0.5-19.5-46.7-62.9-103l-3-3.9l-3,3.9c-7.7,10-14.6,19.6-20.8,28.7
			c-1.1-4.4-4.3-7.9-8.5-9.4v-46.6c5.1-1.8,8.9-6.7,8.9-12.5v-0.7c0-7.3-6-13.3-13.3-13.3H247v-18.3c0-4.4-3.6-8-8-8h-26.1
			c-4.4,0-8,3.6-8,8v18.3h-7.5c-7.3,0-13.3,6-13.3,13.3v0.7c0,6,4,11,9.4,12.6v46.3c-5.4,1.7-9.4,6.7-9.4,12.6v0.7
			c0,6,4,11,9.4,12.6v46.3c-5.4,1.7-9.4,6.7-9.4,12.6v0.7c0,6,4,11,9.4,12.6V401c-5.4,1.7-9.4,6.7-9.4,12.6v0.7
			c0,7.3,6,13.3,13.3,13.3h153.7c12.2,9.3,27.3,14.9,43.8,14.9c39.8,0,72.3-32.5,72.4-72.4C467.3,354.8,461,340.7,460.8,340.3z
			 M334.5,328.1H201.2v-45H220v18.4c0,2.1,1.7,3.8,3.8,3.8s3.8-1.7,3.8-3.8v-18.4h127.2v8C345.5,306.7,338.8,319.5,334.5,328.1z
			 M303.7,210.9v24.6c0,2.1,1.7,3.8,3.8,3.8s3.8-1.7,3.8-3.8v-24.6h16.7v11.1c0,2.1,1.7,3.8,3.8,3.8c2.1,0,3.8-1.7,3.8-3.8v-11.1
			h19.1v45H201.2v-45H303.7z M212,165.3c0-0.5,0.4-0.9,0.9-0.9H239c0.5,0,0.9,0.4,0.9,0.9v18.3H212V165.3z M191.8,197.6v-0.7
			c0-3.1,2.5-5.6,5.6-5.6h160.8c3.1,0,5.6,2.5,5.6,5.6v0.7c0,3.1-2.5,5.6-5.6,5.6H197.4C194.3,203.2,191.8,200.7,191.8,197.6z
			 M191.8,269.8v-0.7c0-3.1,2.5-5.6,5.6-5.6h160.8c3.1,0,5.6,2.5,5.6,5.6v0.7c0,3.1-2.5,5.6-5.6,5.6H197.4
			C194.3,275.4,191.8,272.9,191.8,269.8z M191.8,342.1v-0.7c0-3.1,2.5-5.6,5.6-5.6h133.5c-1.3,2.8-1.9,4.3-1.9,4.4
			c-0.1,0.3-1.4,3.1-2.8,7.5H197.4C194.3,347.7,191.8,345.2,191.8,342.1z M265.5,374.9c-2.1,0-3.8,1.7-3.8,3.8v21.6h-60.5v-45h122.9
			c-1,4.4-1.7,9.5-1.7,14.8c0,10.8,2.5,21,6.7,30.2h-59.8v-21.6C269.4,376.6,267.7,374.9,265.5,374.9z M191.8,414.3v-0.7
			c0-3.1,2.5-5.6,5.6-5.6h136c2.7,4.3,5.7,8.3,9.2,11.9H197.4C194.3,419.9,191.8,417.4,191.8,414.3z M394.8,434.8
			c-35.6,0-64.7-29-64.7-64.7c0-13.6,5.7-26.7,5.8-26.9c0.2-0.4,18.3-43.7,58.9-97.2c40.6,53.6,58.7,96.8,58.9,97.4
			c0.1,0.1,5.8,13.2,5.8,26.8C459.5,405.8,430.5,434.8,394.8,434.8z"/>
		<path class="st1" d="M435,389.9c-1.8-1.2-4.2-0.6-5.3,1.2c-7,10.9-18.8,17.4-31.7,17.4c-1.7,0-3.4-0.1-5-0.3
			c-2.1-0.3-4,1.2-4.3,3.3c-0.3,2.1,1.2,4,3.3,4.3c2,0.3,4,0.4,6,0.4c15.5,0,29.8-7.8,38.2-20.9C437.3,393.4,436.8,391,435,389.9z"
			/>
		<path class="st1" d="M439.1,363.7c-2.1,0.2-3.7,2-3.5,4.1c0.1,1,0.1,1.9,0.1,2.9c0,3.6-0.5,7.1-1.5,10.5c-0.6,2,0.6,4.2,2.6,4.8
			c0.4,0.1,0.7,0.2,1.1,0.2c1.7,0,3.2-1.1,3.7-2.8c1.2-4.1,1.8-8.3,1.8-12.6c0-1.2,0-2.3-0.1-3.5C443,365.2,441.2,363.6,439.1,363.7
			z"/>
	</g>
</g>
<g>
	<g>
		<g id="CAD_Centered_Ellipse_00000078764425979441636280000002493250602777479331_">
			<circle class="st4" cx="3900.7" cy="352.6" r="281.7"/>
		</g>
	</g>
	<path class="st1" d="M4072,493V234.5c0-2.6-2.1-4.7-4.7-4.7h-60.4v-11c0-8.9-7.2-16.1-16.1-16.1h-157.8c-8.9,0-16.1,7.2-16.1,16.1
		v11h-60.4c-2.6,0-4.7,2.1-4.7,4.7v41.9c-8.6,0.3-15.5,7.4-15.5,16V493h-19.2v9.3h366.8V493H4072z M4062.7,313.8h-75.2
		c-2.6,0-4.7,2.1-4.7,4.7s2.1,4.7,4.7,4.7h75.2v86.5h-75.2c-2.6,0-4.7,2.1-4.7,4.7s2.1,4.7,4.7,4.7h75.2v69.3h-120.8V239.2h120.8
		V313.8z M3761.3,239.2h120.8v74.6h-75.2c-2.6,0-4.7,2.1-4.7,4.7s2.1,4.7,4.7,4.7h75.2v86.5h-75.2c-2.6,0-4.7,2.1-4.7,4.7
		s2.1,4.7,4.7,4.7h75.2v69.3h-120.8V239.2z M3745.8,493V292.5c0-3.5,2.7-6.4,6.2-6.7V493H3745.8z M3891.5,493V234.5
		c0-2.6-2.1-4.7-4.7-4.7h-60.4v-11c0-3.7,3-6.7,6.7-6.7h157.8c3.7,0,6.7,3,6.7,6.7v11h-60.4c-2.6,0-4.7,2.1-4.7,4.7v41.9h-0.5
		c-8.9,0-16.1,7.2-16.1,16.1V493H3891.5z M3925.3,493V292.5c0-3.7,3-6.7,6.7-6.7h0.5V493H3925.3z"/>
</g>
</svg>
