<?xml version="1.0" encoding="utf-8"?>
<!-- Generator: Adobe Illustrator 27.3.1, SVG Export Plug-In . SVG Version: 6.00 Build 0)  -->
<svg version="1.1" id="Layer_1" xmlns="http://www.w3.org/2000/svg" xmlns:xlink="http://www.w3.org/1999/xlink" x="0px" y="0px"
	 viewBox="0 0 600 600" style="enable-background:new 0 0 600 600;" xml:space="preserve">
<style type="text/css">
	.st0{fill:#F26522;}
	.st1{fill:#BC4F18;}
	.st2{fill:#010101;}
	.st3{fill:#BE4F18;}
	.st4{fill:#F16522;}
</style>
<g>
	<g>
		
			<circle id="CAD_Centered_Ellipse_00000018926595329949522920000012216898093628989836_" class="st0" cx="-384.8" cy="1094.1" r="289.4"/>
	</g>
	<g>
		<path class="st1" d="M-183.4,1179.3V1088l-14.6-40.7c-9.4-29-37.7-28.6-37.8-28.6h-83.4v157.4h-13.6c6.2-3.3,10.5-9.8,10.5-17.3
			v-154.7c0-10.8-8.8-19.5-19.5-19.5H-431v-23.8h7.8c1.8,0,3.2-1.4,3.2-3.2c0-1.8-1.4-3.2-3.2-3.2h-7.8h-41h-7.8
			c-1.8,0-3.2,1.4-3.2,3.2c0,1.8,1.4,3.2,3.2,3.2h7.8v23.8h-94.7c-10.8,0-19.5,8.8-19.5,19.5v154.7c0,7.5,4.3,14,10.5,17.3h-1.2
			c-1.8,0-3.2,1.4-3.2,3.2v34.2c0,1.8,1.4,3.2,3.2,3.2h34.5c4.5,10,14.6,17,26.3,17c11.8,0,21.9-7.1,26.4-17.2
			c4.5,10.1,14.6,17.2,26.4,17.2c11.7,0,21.8-7,26.3-17h147c4.5,10,14.6,17,26.3,17c11.7,0,21.8-7,26.3-17c0.1,0,0.1,0,0.2,0h31
			c11.8,0,17.4-5.5,20.1-10.2c2.9-5,2.9-10,2.9-10.2L-183.4,1179.3C-183.4,1179.3-183.4,1179.3-183.4,1179.3z M-277.6,1176.1v-47
			h13.8c1.8,0,3.2-1.4,3.2-3.2c0-1.8-1.4-3.2-3.2-3.2h-13.8V1094h87.8v45.5h-31c-1.8,0-3.2,1.4-3.2,3.2v33.4H-277.6z M-217.6,1146
			h27.8v30.2h-27.8V1146z M-235.7,1025.2c1,0,23.7-0.2,31.7,24.2l13.7,38.1h-87.2v-62.4L-235.7,1025.2z M-312.8,1025.2l28.7,0v150.9
			h-28.7V1025.2z M-481.6,1182.6c-3.5,2.9-6.4,6.5-8.2,10.7c-1.9-4.2-4.7-7.9-8.2-10.7H-481.6z M-465.6,960.8h28.1v23.8h-28.1V960.8
			z M-579.8,1158.8v-154.7c0-7.2,5.9-13.1,13.1-13.1h94.7h41h89.2c7.2,0,13.1,5.9,13.1,13.1v154.7c0,7.2-5.9,13.1-13.1,13.1h-224.9
			C-573.9,1171.9-579.8,1166-579.8,1158.8z M-573.7,1210.3v-27.8h39.4c-6.5,5.3-10.7,13.4-10.7,22.4c0,1.8,0.2,3.6,0.5,5.4H-573.7z
			 M-516.2,1227.4c-12.3,0-22.4-10-22.4-22.4s10-22.4,22.4-22.4c12.3,0,22.4,10,22.4,22.4S-503.9,1227.4-516.2,1227.4z
			 M-463.4,1227.4c-12.3,0-22.4-10-22.4-22.4s10-22.4,22.4-22.4c12.3,0,22.4,10,22.4,22.4S-451.1,1227.4-463.4,1227.4z
			 M-435.1,1210.3c0.3-1.7,0.5-3.5,0.5-5.4c0-9-4.2-17.1-10.7-22.4H-282c-6.5,5.3-10.7,13.4-10.7,22.4c0,1.8,0.2,3.6,0.5,5.4H-435.1
			z M-263.8,1227.4c-12.3,0-22.4-10-22.4-22.4s10-22.4,22.4-22.4c12.3,0,22.4,10,22.4,22.4S-251.5,1227.4-263.8,1227.4z
			 M-189.8,1196.4c0,1.4-0.6,13.9-16.5,13.9h-29.2c0.3-1.7,0.5-3.5,0.5-5.4c0-9-4.2-17.1-10.7-22.4h55.9V1196.4z"/>
		<path class="st1" d="M-516.2,1147.4h91.6c5.6,0,10.1-4.6,10.1-10.1v-106.6c0-5.6-4.6-10.1-10.1-10.1h-91.6
			c-5.6,0-10.1,4.6-10.1,10.1v106.6C-526.4,1142.9-521.8,1147.4-516.2,1147.4z M-519.9,1030.7c0-2,1.7-3.7,3.7-3.7h91.6
			c2,0,3.7,1.7,3.7,3.7v106.6c0,2-1.7,3.7-3.7,3.7h-91.6c-2,0-3.7-1.7-3.7-3.7V1030.7z"/>
		<path class="st1" d="M-388.5,1050.4h28.2c1.8,0,3.2-1.4,3.2-3.2c0-1.8-1.4-3.2-3.2-3.2h-28.2c-1.8,0-3.2,1.4-3.2,3.2
			C-391.7,1049-390.2,1050.4-388.5,1050.4z"/>
		<path class="st1" d="M-388.5,1085.9h28.2c1.8,0,3.2-1.4,3.2-3.2c0-1.8-1.4-3.2-3.2-3.2h-28.2c-1.8,0-3.2,1.4-3.2,3.2
			C-391.7,1084.5-390.2,1085.9-388.5,1085.9z"/>
		<path class="st1" d="M-388.5,1121.4h12.1c1.8,0,3.2-1.4,3.2-3.2s-1.4-3.2-3.2-3.2h-12.1c-1.8,0-3.2,1.4-3.2,3.2
			S-390.2,1121.4-388.5,1121.4z"/>
		<path class="st1" d="M-472.3,1112c11.7,0,21.3-9.5,21.3-21.3c0-3.4-0.9-6.8-2.6-10c0,0,0,0,0,0l-0.8-1.5c-0.1-0.1-0.1-0.2-0.2-0.3
			l-14.4-22.3c-0.6-0.9-1.6-1.5-2.7-1.5h-1.1c-1.1,0-2.1,0.6-2.7,1.5l-14.3,22.3c-0.1,0.1-0.1,0.2-0.2,0.3l-0.8,1.5
			c-1.7,3.2-2.6,6.6-2.6,10C-493.5,1102.5-484,1112-472.3,1112z M-485.2,1083.8l0.8-1.4l12.2-18.9l12.2,18.9l0.8,1.4
			c1.2,2.3,1.8,4.6,1.8,7c0,8.2-6.6,14.8-14.8,14.8c-8.2,0-14.8-6.6-14.8-14.8C-487.1,1088.4-486.5,1086-485.2,1083.8z"/>
	</g>
</g>
<path class="st0" d="M-349.8,588.3c-77.4,0-150.2-30.2-204.9-84.9c-54.8-54.8-84.9-127.5-84.9-205s30.2-150.2,84.9-205
	C-500,38.8-427.2,8.6-349.8,8.6c77.4,0,150.2,30.2,204.9,84.9c54.8,54.8,84.9,127.5,84.9,205s-30.2,150.2-84.9,205
	C-199.6,558.2-272.4,588.3-349.8,588.3z"/>
<path class="st2" d="M302,18.2c155.9,0,282.3,126.4,282.3,282.4S458,582.9,302,582.9S19.7,456.5,19.7,300.5S146.1,18.2,302,18.2
	 M302,3.2c-40.1,0-79.1,7.9-115.8,23.4c-35.4,15-67.2,36.4-94.5,63.7S43,149.4,28,184.8C12.5,221.5,4.7,260.4,4.7,300.5
	s7.9,79.1,23.4,115.8c15,35.4,36.4,67.2,63.7,94.5s59.1,48.7,94.5,63.7c36.7,15.5,75.6,23.4,115.8,23.4s79.1-7.9,115.8-23.4
	c35.4-15,67.2-36.4,94.5-63.7c27.3-27.3,48.7-59.1,63.7-94.5c15.5-36.7,23.4-75.6,23.4-115.8s-7.9-79.1-23.4-115.7
	c-15-35.4-36.4-67.2-63.7-94.5s-59.1-48.7-94.5-63.7C381.1,11.1,342.2,3.2,302,3.2L302,3.2z"/>
<g>
	<path class="st3" d="M-194.2,451.1V387h-20.7v-32.3c7.4-1.9,12.9-8.6,12.9-16.6c0-9.2-7.3-16.7-16.4-17.1l-3.1-25.5l-81.1-44.6
		v-3.5c0-4.9-4-8.8-8.8-8.8h-13.5l-52.7-29l2.8-2.9l19.4-42.9l-27.6-28.6l-39.6,16.4l-38.3,38.6c-35.4,38.4-34.1,85.8-34,87.7v26.7
		v7.8v25.7c0,2.4,1.9,4.3,4.3,4.3s4.3-1.9,4.3-4.3v-31.1l34.4-21.6l47.8-48.8l51.5,29.4v13.7c0,1.2,0.2,2.3,0.6,3.3l-32.9,140.7
		h-34.8v27.4h-55.3v-11.7c0-7.1-4.8-13.1-11.3-15v-30.2c0-2.4-1.9-4.3-4.3-4.3s-4.3,1.9-4.3,4.3v30.2c-6.5,1.9-11.3,7.8-11.3,15
		v11.7h-0.6v8.6h317.6v-8.6L-194.2,451.1z M-244.3,387v36.8h-26.1l-29.9-127.9l64.7,37c-0.5,1.7-0.9,3.4-0.9,5.3
		c0,8,5.5,14.7,12.9,16.6v32.3L-244.3,387z M-320.5,423.7h-14.1v-12.5c0-3.9,3.2-7,7-7c3.9,0,7,3.2,7,7L-320.5,423.7z M-327.5,395.6
		c-8.6,0-15.6,7-15.6,15.6v12.5h-31l46.8-91.2l47.4,91.2h-31.9v-12.5C-311.9,402.6-318.9,395.6-327.5,395.6z M-327.5,313.8
		l-13.1-25.3h26.1L-327.5,313.8z M-308.9,296.6l22.4,96l-36.1-69.4L-308.9,296.6z M-332.3,323.2l-36.9,71.8l23-98.5L-332.3,323.2z
		 M-210.6,338.1c0,4.7-3.9,8.6-8.6,8.6c-4.7,0-8.6-3.9-8.6-8.6c0-4.7,3.9-8.6,8.6-8.6C-214.5,329.5-210.6,333.3-210.6,338.1z
		 M-229.5,300.9l2.6,21.8c-1.5,0.7-2.8,1.7-4,2.8l-72-41.2l-0.3-1.4c0.4-1,0.6-2.1,0.6-3.3v-19L-229.5,300.9z M-311.2,247.4v32.3
		c0,0.1-0.1,0.2-0.2,0.2l-32.5-0.2l0.2-32.5l16.8,0.1l0.5,0.3l0.1-0.3L-311.2,247.4z M-365.6,165.6l-8.2,18.2l-30.1-30.5l18.9-7.9
		L-365.6,165.6z M-417.6,158.9l5-2.1l34.9,35.4l-4.3,9.6l-8,8.1l-39-39.6L-417.6,158.9z M-456.8,278.3l-29.3,18.5v-19
		c0-0.5-1.2-46,31.6-81.6l19.5-19.6l18,18.3l-19.2,19.4c-1.7,1.7-1.7,4.4,0,6.1c0.8,0.8,1.9,1.2,3,1.2c1.1,0,2.2-0.4,3.1-1.3
		l19.1-19.3l15,15.2L-456.8,278.3z M-397.7,230.1l13.9-14.2l41.1,22.6h-0.9c-4.9,0-8.8,3.9-8.8,8.8v8.6L-397.7,230.1z M-497.4,439.4
		c0-3.9,3.1-7,7-7s7,3.2,7,7v11.7h-14.1L-497.4,439.4z M-410.8,451.1v-18.8h166.6v18.8H-410.8z M-235.7,451.1v-55.5h32.8v55.5
		H-235.7z"/>
</g>
<g>
	<g>
		<g id="CAD_Centered_Ellipse_00000121254997013298413050000012810086426529865379_">
			<circle class="st4" cx="302" cy="300.5" r="282"/>
		</g>
	</g>
	<g>
		<path class="st1" d="M239,247.7h113.9c2.2,0,4-1.8,4-4c0-2.2-1.8-4-4-4H239c-2.2,0-4,1.8-4,4C235,245.9,236.8,247.7,239,247.7z"/>
		<path class="st1" d="M239,279.7h81.3c2.2,0,4-1.8,4-4c0-2.2-1.8-4-4-4H239c-2.2,0-4,1.8-4,4C235,278,236.8,279.7,239,279.7z"/>
		<path class="st1" d="M239,311.8h81.3c2.2,0,4-1.8,4-4s-1.8-4-4-4H239c-2.2,0-4,1.8-4,4S236.8,311.8,239,311.8z"/>
		<path class="st1" d="M324.2,339.9c0-2.2-1.8-4-4-4H239c-2.2,0-4,1.8-4,4s1.8,4,4,4h81.3C322.4,343.8,324.2,342.1,324.2,339.9z"/>
		<path class="st1" d="M351,386.7h-46.4c-2.2,0-4,1.8-4,4c0,2.2,1.8,4,4,4H351c2.2,0,4-1.8,4-4C355,388.5,353.2,386.7,351,386.7z"/>
		<path class="st1" d="M473,256.9c0-4.6-1.8-8.9-5-12.1c-6.7-6.7-17.5-6.7-24.2-0.1l-38,36.7v-68.9c0-1.2-0.5-2.3-1.5-3.1
			l-50.6-40.3c-0.2-0.1-0.3-0.3-0.5-0.4l-0.8-0.6c-0.7-0.6-1.6-0.9-2.5-0.9H218.4c-8.2,0-14.9,6.7-14.9,14.9v236.6
			c0,8.2,6.7,14.9,14.9,14.9h172.5c8.2,0,14.9-6.7,14.9-14.9v-89.8c0,0,0,0,0,0l52.8-51c0.4-0.2,0.7-0.4,1-0.7
			c0.3-0.3,0.5-0.6,0.6-0.9l7.7-7.4C471.2,265.8,473,261.5,473,256.9z M393,330.5l-13-13.1l58.1-56.1l13,13.1L393,330.5z
			 M386.3,335.1l-23.8,12.7l12.8-23.8L386.3,335.1z M355,180.4l34.5,27.4h-30.6c-2.1,0-3.9-1.7-3.9-3.9V180.4z M397.9,418.9
			c0,3.9-3.1,7-7,7H218.4c-3.9,0-7-3.1-7-7V182.2c0-3.9,3.1-7,7-7h128.7v28.6c0,6.5,5.3,11.8,11.8,11.8h39.1v73.4l-26.3,25.4
			c0,0-0.1,0.1-0.1,0.1c-0.1,0.1-0.1,0.2-0.2,0.2c-0.1,0.1-0.2,0.3-0.3,0.5c0,0.1-0.1,0.1-0.1,0.1l-21.4,40
			c-0.8,1.5-0.5,3.4,0.7,4.7c0.8,0.8,1.8,1.2,2.8,1.2c0.6,0,1.3-0.2,1.9-0.5l40-21.3c0,0,0.1-0.1,0.1-0.1c0.2-0.1,0.3-0.2,0.5-0.3
			c0.1-0.1,0.2-0.1,0.2-0.2c0,0,0.1,0,0.1-0.1l2.2-2.2V418.9z M462.4,263.4l-5.7,5.5l-13-13.1l5.6-5.4c3.6-3.6,9.5-3.6,13.1,0
			c1.7,1.7,2.7,4.1,2.7,6.5C465.1,259.4,464.1,261.7,462.4,263.4z"/>
	</g>
</g>
<g>
	<g>
		<g id="CAD_Centered_Ellipse_00000091013020585941669400000011897828275513461684_">
			<circle class="st4" cx="2533.8" cy="352.6" r="281.7"/>
		</g>
	</g>
	<g>
		<path class="st1" d="M2688.9,392c-0.2-0.4-19.1-45.7-61.5-100.7l-3-3.9l-3,3.9c-7.5,9.7-14.3,19.2-20.3,28.1
			c-1-4.3-4.2-7.7-8.3-9.1v-45.6c5-1.8,8.7-6.5,8.7-12.2v-0.7c0-7.2-5.8-13-13-13h-108.7v-17.9c0-4.3-3.5-7.8-7.8-7.8h-25.5
			c-4.3,0-7.8,3.5-7.8,7.8v17.9h-7.3c-7.2,0-13,5.8-13,13v0.7c0,5.8,3.9,10.7,9.2,12.4v45.2c-5.3,1.6-9.2,6.5-9.2,12.4v0.7
			c0,5.8,3.9,10.7,9.2,12.4v45.2c-5.3,1.6-9.2,6.5-9.2,12.4v0.7c0,5.8,3.9,10.7,9.2,12.4v45.2c-5.3,1.6-9.2,6.5-9.2,12.4v0.7
			c0,7.2,5.8,13,13,13h150.3c11.9,9.1,26.7,14.6,42.8,14.6c39,0,70.7-31.8,70.8-70.8C2695.2,406.2,2689.1,392.5,2688.9,392z
			 M2565.4,380.1H2435v-44h18.4v18c0,2.1,1.7,3.8,3.8,3.8s3.8-1.7,3.8-3.8v-18h124.3v7.9C2576.1,359.2,2569.5,371.7,2565.4,380.1z
			 M2535.2,265.5v24.1c0,2.1,1.7,3.8,3.8,3.8s3.8-1.7,3.8-3.8v-24.1h16.3v10.8c0,2.1,1.7,3.8,3.8,3.8s3.8-1.7,3.8-3.8v-10.8h18.7v44
			H2435v-44H2535.2z M2445.6,220.9c0-0.5,0.4-0.9,0.9-0.9h25.5c0.5,0,0.9,0.4,0.9,0.9v17.9h-27.2V220.9z M2425.8,252.5v-0.7
			c0-3,2.4-5.5,5.5-5.5h157.2c3,0,5.5,2.4,5.5,5.5v0.7c0,3-2.4,5.5-5.5,5.5h-157.2C2428.3,258,2425.8,255.5,2425.8,252.5z
			 M2425.8,323.2v-0.7c0-3,2.4-5.5,5.5-5.5h157.2c3,0,5.5,2.4,5.5,5.5v0.7c0,3-2.4,5.5-5.5,5.5h-157.2
			C2428.3,328.6,2425.8,326.2,2425.8,323.2z M2425.8,393.8v-0.7c0-3,2.4-5.5,5.5-5.5h130.5c-1.2,2.7-1.9,4.2-1.9,4.3
			c-0.1,0.3-1.4,3-2.7,7.4h-125.9C2428.3,399.3,2425.8,396.8,2425.8,393.8z M2497.9,425.9c-2.1,0-3.8,1.7-3.8,3.8v21.1H2435v-44
			h120.2c-0.9,4.4-1.7,9.3-1.6,14.4c0,10.6,2.4,20.6,6.6,29.6h-58.5v-21.1C2501.7,427.6,2500,425.9,2497.9,425.9z M2425.8,464.5
			v-0.7c0-3,2.4-5.5,5.5-5.5h133c2.6,4.2,5.6,8.1,9,11.6h-141.9C2428.3,469.9,2425.8,467.5,2425.8,464.5z M2624.4,484.5
			c-34.8,0-63.2-28.4-63.3-63.3c0-13.3,5.6-26.1,5.7-26.3c0.2-0.4,17.9-42.7,57.6-95.1c39.7,52.4,57.4,94.7,57.6,95.2
			c0.1,0.1,5.7,12.9,5.7,26.2C2687.6,456.1,2659.2,484.5,2624.4,484.5z"/>
		<path class="st1" d="M2663.7,440.6c-1.7-1.1-4.1-0.6-5.2,1.1c-6.8,10.6-18.4,17-31,17c-1.6,0-3.3-0.1-4.9-0.3
			c-2.1-0.3-3.9,1.2-4.2,3.2c-0.3,2.1,1.2,3.9,3.2,4.2c1.9,0.3,3.9,0.4,5.9,0.4c15.2,0,29.1-7.6,37.3-20.4
			C2665.9,444,2665.4,441.7,2663.7,440.6z"/>
		<path class="st1" d="M2667.6,415c-2.1,0.2-3.6,2-3.5,4c0.1,0.9,0.1,1.9,0.1,2.8c0,3.5-0.5,6.9-1.4,10.2c-0.6,2,0.6,4.1,2.6,4.7
			c0.3,0.1,0.7,0.1,1,0.1c1.6,0,3.1-1.1,3.6-2.7c1.2-4,1.7-8.1,1.7-12.3c0-1.1,0-2.3-0.1-3.4C2671.5,416.4,2669.7,414.9,2667.6,415z
			"/>
	</g>
</g>
<g>
	<g>
		<g id="CAD_Centered_Ellipse_00000078764425979441636280000002493250602777479331_">
			<circle class="st4" cx="3900.7" cy="352.6" r="281.7"/>
		</g>
	</g>
	<path class="st1" d="M4072,493V234.5c0-2.6-2.1-4.7-4.7-4.7h-60.4v-11c0-8.9-7.2-16.1-16.1-16.1h-157.8c-8.9,0-16.1,7.2-16.1,16.1
		v11h-60.4c-2.6,0-4.7,2.1-4.7,4.7v41.9c-8.6,0.3-15.5,7.4-15.5,16V493h-19.2v9.3h366.8V493H4072z M4062.7,313.8h-75.2
		c-2.6,0-4.7,2.1-4.7,4.7s2.1,4.7,4.7,4.7h75.2v86.5h-75.2c-2.6,0-4.7,2.1-4.7,4.7s2.1,4.7,4.7,4.7h75.2v69.3h-120.8V239.2h120.8
		V313.8z M3761.3,239.2h120.8v74.6h-75.2c-2.6,0-4.7,2.1-4.7,4.7s2.1,4.7,4.7,4.7h75.2v86.5h-75.2c-2.6,0-4.7,2.1-4.7,4.7
		s2.1,4.7,4.7,4.7h75.2v69.3h-120.8V239.2z M3745.8,493V292.5c0-3.5,2.7-6.4,6.2-6.7V493H3745.8z M3891.5,493V234.5
		c0-2.6-2.1-4.7-4.7-4.7h-60.4v-11c0-3.7,3-6.7,6.7-6.7h157.8c3.7,0,6.7,3,6.7,6.7v11h-60.4c-2.6,0-4.7,2.1-4.7,4.7v41.9h-0.5
		c-8.9,0-16.1,7.2-16.1,16.1V493H3891.5z M3925.3,493V292.5c0-3.7,3-6.7,6.7-6.7h0.5V493H3925.3z"/>
</g>
</svg>
