<?xml version="1.0" encoding="utf-8"?>
<!-- Generator: Adobe Illustrator 27.3.1, SVG Export Plug-In . SVG Version: 6.00 Build 0)  -->
<svg version="1.1" id="Layer_1" xmlns="http://www.w3.org/2000/svg" xmlns:xlink="http://www.w3.org/1999/xlink" x="0px" y="0px"
	 viewBox="0 0 600 600" style="enable-background:new 0 0 600 600;" xml:space="preserve">
<style type="text/css">
	.st0{fill:#F26522;}
	.st1{fill:#010101;}
	.st2{fill:#BE4F18;}
</style>
<g>
	<g id="CAD_Centered_Ellipse_00000165932027250903187520000018154782017556991622_">
		<path class="st0" d="M300.23,589.29c-77.42,0-150.21-30.15-204.95-84.89c-54.75-54.75-84.9-127.53-84.9-204.96
			s30.15-150.21,84.9-204.95C150.02,39.75,222.8,9.6,300.23,9.6c77.42,0,150.21,30.15,204.95,84.9
			c54.75,54.75,84.89,127.53,84.89,204.95s-30.15,150.21-84.89,204.96C450.43,559.15,377.65,589.29,300.23,589.29z"/>
		<path class="st1" d="M300.23,17.1c155.94,0,282.35,126.41,282.35,282.35S456.16,581.79,300.23,581.79S17.88,455.38,17.88,299.45
			S144.29,17.1,300.23,17.1 M300.23,2.1c-40.14,0-79.08,7.86-115.75,23.37c-35.41,14.98-67.21,36.42-94.51,63.72
			c-27.3,27.3-48.74,59.1-63.72,94.51C10.74,220.37,2.88,259.31,2.88,299.45s7.86,79.08,23.37,115.75
			c14.98,35.41,36.42,67.21,63.72,94.51c27.3,27.3,59.1,48.74,94.51,63.72c36.67,15.51,75.61,23.37,115.75,23.37
			s79.08-7.86,115.75-23.37c35.41-14.98,67.21-36.42,94.51-63.72c27.3-27.3,48.74-59.1,63.72-94.51
			c15.51-36.67,23.37-75.61,23.37-115.75s-7.86-79.08-23.37-115.75c-14.98-35.41-36.42-67.21-63.72-94.51
			c-27.3-27.3-59.1-48.74-94.51-63.72C379.3,9.96,340.36,2.1,300.23,2.1L300.23,2.1z"/>
	</g>
	<g>
		<path class="st2" d="M455.79,452.08l0-64.13l-20.73,0l0-32.27c7.4-1.93,12.9-8.6,12.9-16.6c0-9.21-7.29-16.69-16.39-17.13
			l-3.06-25.46l-81.12-44.64l0-3.46c0-4.85-3.95-8.8-8.8-8.8l-13.49,0l-52.69-28.99l2.82-2.88l19.4-42.94l-27.56-28.56l-39.55,16.41
			l-38.26,38.56c-35.4,38.4-34.06,85.83-33.99,87.67l0,26.69l0,7.8l0,25.73c0,2.38,1.93,4.31,4.31,4.31c2.38,0,4.31-1.93,4.31-4.31
			l0-31.15l34.35-21.61l47.81-48.82l51.45,29.42l0,13.74c0,1.17,0.24,2.28,0.65,3.3L265.3,424.7l-34.75,0l0,27.37l-55.32,0l0-11.73
			c0-7.13-4.81-13.08-11.34-14.97l0-30.17c0-2.38-1.93-4.31-4.31-4.31c-2.38,0-4.31,1.93-4.31,4.31l0,30.17
			c-6.52,1.88-11.34,7.84-11.34,14.97l0,11.73h-0.63l0,8.61l317.56,0l0-8.61L455.79,452.08z M405.73,387.95l0,36.75l-26.14,0
			l-29.87-127.93l64.74,37.02c-0.54,1.67-0.91,3.43-0.91,5.28c0,7.99,5.5,14.67,12.9,16.6l0,32.27L405.73,387.95z M329.48,424.7
			l-14.07,0l0-12.51c0-3.88,3.16-7.03,7.03-7.03c3.88,0,7.03,3.16,7.03,7.03L329.48,424.7z M322.45,396.55
			c-8.63,0-15.65,7.02-15.65,15.65l0,12.51l-31.03,0l46.82-91.16l47.36,91.16l-31.85,0l0-12.51
			C338.09,403.57,331.08,396.55,322.45,396.55z M322.54,314.77l-13.15-25.31l26.15,0L322.54,314.77z M341.07,297.56l22.42,96.04
			l-36.08-69.45L341.07,297.56z M317.72,324.16l-36.86,71.77l22.99-98.46L317.72,324.16z M439.36,339.07c0,4.74-3.86,8.6-8.6,8.6
			c-4.74,0-8.59-3.86-8.59-8.6c0-4.74,3.86-8.6,8.59-8.6C435.5,330.48,439.36,334.33,439.36,339.07z M420.49,301.9l2.62,21.84
			c-1.48,0.74-2.84,1.66-4.04,2.78l-72.03-41.19l-0.32-1.37c0.42-1.02,0.65-2.13,0.65-3.3l0-18.99L420.49,301.9z M338.78,248.38
			l0,32.28c0,0.09-0.1,0.19-0.19,0.19l-32.47-0.19l0.19-32.47l16.76,0.1l0.47,0.26l0.14-0.26L338.78,248.38z M284.38,166.55
			l-8.24,18.25l-30.1-30.52l18.92-7.85L284.38,166.55z M232.42,159.92l5.03-2.09l34.88,35.37l-4.33,9.58l-7.96,8.14l-38.99-39.55
			L232.42,159.92z M193.23,279.3l-29.34,18.45l0-19.05c-0.01-0.45-1.21-45.97,31.6-81.56l19.5-19.65L233,195.75l-19.19,19.37
			c-1.67,1.69-1.67,4.42,0.03,6.09c0.84,0.83,1.93,1.25,3.03,1.25c1.11,0,2.22-0.42,3.06-1.27l19.13-19.3l14.99,15.2L193.23,279.3z
			 M252.29,231.14l13.87-14.16l41.08,22.61h-0.93c-4.85,0-8.8,3.95-8.8,8.8l0,8.62L252.29,231.14z M152.56,440.35
			c0-3.88,3.15-7.03,7.03-7.03c3.88,0,7.03,3.16,7.03,7.03l0,11.73l-14.07,0L152.56,440.35z M239.17,452.07l0-18.76l166.57,0
			l0,18.76L239.17,452.07z M414.34,452.07l0-55.52l32.84,0l0,55.52L414.34,452.07z"/>
		<path class="st2" d="M159.59,380.33c2.38,0,4.31-1.93,4.31-4.31l0-18.95c0-2.38-1.93-4.31-4.31-4.31s-4.31,1.93-4.31,4.31l0,18.95
			C155.29,378.41,157.21,380.33,159.59,380.33z"/>
	</g>
</g>
</svg>
