<?xml version="1.0" encoding="utf-8"?>
<!-- Generator: Adobe Illustrator 27.4.1, SVG Export Plug-In . SVG Version: 6.00 Build 0)  -->
<svg version="1.1" id="Layer_1" xmlns="http://www.w3.org/2000/svg" xmlns:xlink="http://www.w3.org/1999/xlink" x="0px" y="0px"
	 viewBox="0 0 288 288" style="enable-background:new 0 0 288 288;" xml:space="preserve">
<style type="text/css">
	.st0{fill:#F26522;}
	.st1{fill:#BE4F18;}
</style>
<g>
	<g>
		<g id="CAD_Centered_Ellipse_00000014604429422442120880000006918356932127913914_">
			<circle class="st0" cx="139.34" cy="144.38" r="74.61"/>
		</g>
	</g>
	<g>
		<path class="st1" d="M180.39,185.41l0-17.13l-5.54,0l0-8.62c1.98-0.51,3.45-2.3,3.45-4.43c0-2.46-1.95-4.46-4.38-4.57l-0.82-6.8
			l-21.67-11.92l0-0.93c0-1.3-1.05-2.35-2.35-2.35l-3.6,0l-14.07-7.74l0.75-0.77l5.18-11.47l-7.36-7.63l-10.56,4.38l-10.22,10.3
			c-9.46,10.26-9.1,22.93-9.08,23.42l0,7.13l0,2.08l0,6.87c0,0.64,0.51,1.15,1.15,1.15c0.64,0,1.15-0.51,1.15-1.15l0-8.32l9.18-5.77
			l12.77-13.04l13.74,7.86l0,3.67c0,0.31,0.06,0.61,0.17,0.88l-8.78,37.59l-9.28,0l0,7.31l-14.78,0l0-3.13c0-1.9-1.29-3.49-3.03-4
			l0-8.06c0-0.64-0.51-1.15-1.15-1.15c-0.64,0-1.15,0.51-1.15,1.15l0,8.06c-1.74,0.5-3.03,2.09-3.03,4l0,3.13h-0.17l0,2.3l84.82,0
			l0-2.3L180.39,185.41z M167.02,168.29l0,9.82l-6.98,0l-7.98-34.17l17.29,9.89c-0.15,0.45-0.24,0.92-0.24,1.41
			c0,2.14,1.47,3.92,3.45,4.43l0,8.62L167.02,168.29z M146.66,178.1l-3.76,0l0-3.34c0-1.04,0.84-1.88,1.88-1.88
			c1.04,0,1.88,0.84,1.88,1.88L146.66,178.1z M144.78,170.58c-2.3,0-4.18,1.87-4.18,4.18l0,3.34l-8.29,0l12.51-24.35l12.65,24.35
			l-8.51,0l0-3.34C148.96,172.46,147.08,170.58,144.78,170.58z M144.8,148.74l-3.51-6.76l6.98,0L144.8,148.74z M149.75,144.14
			l5.99,25.65l-9.64-18.55L149.75,144.14z M143.51,151.25l-9.84,19.17l6.14-26.3L143.51,151.25z M176,155.23
			c0,1.27-1.03,2.3-2.3,2.3c-1.27,0-2.3-1.03-2.3-2.3c0-1.27,1.03-2.3,2.3-2.3C174.97,152.93,176,153.96,176,155.23z M170.96,145.3
			l0.7,5.83c-0.39,0.2-0.76,0.44-1.08,0.74l-19.24-11l-0.09-0.36c0.11-0.27,0.17-0.57,0.17-0.88l0-5.07L170.96,145.3z
			 M149.14,131.01l0,8.62c0,0.02-0.03,0.05-0.05,0.05l-8.67-0.05l0.05-8.67l4.48,0.03l0.13,0.07l0.04-0.07L149.14,131.01z
			 M134.61,109.15l-2.2,4.87l-8.04-8.15l5.05-2.1L134.61,109.15z M120.73,107.38l1.34-0.56l9.32,9.45l-1.16,2.56l-2.13,2.17
			l-10.42-10.56L120.73,107.38z M110.26,139.27l-7.84,4.93l0-5.09c0-0.12-0.32-12.28,8.44-21.79l5.21-5.25l4.81,4.88l-5.13,5.17
			c-0.45,0.45-0.44,1.18,0.01,1.63c0.22,0.22,0.52,0.33,0.81,0.33c0.3,0,0.59-0.11,0.82-0.34l5.11-5.15l4,4.06L110.26,139.27z
			 M126.04,126.4l3.71-3.78l10.97,6.04h-0.25c-1.3,0-2.35,1.05-2.35,2.35l0,2.3L126.04,126.4z M99.4,182.28
			c0-1.04,0.84-1.88,1.88-1.88c1.04,0,1.88,0.84,1.88,1.88l0,3.13l-3.76,0L99.4,182.28z M122.53,185.41l0-5.01l44.49,0l0,5.01
			L122.53,185.41z M169.32,185.41l0-14.83l8.77,0l0,14.83L169.32,185.41z"/>
		<path class="st1" d="M101.28,166.25c0.64,0,1.15-0.51,1.15-1.15l0-5.06c0-0.64-0.51-1.15-1.15-1.15c-0.64,0-1.15,0.51-1.15,1.15
			l0,5.06C100.13,165.74,100.64,166.25,101.28,166.25z"/>
	</g>
</g>
</svg>
